<?xml version="1.0" encoding="utf-8"?>
<!-- Generator: Adobe Illustrator 19.1.0, SVG Export Plug-In . SVG Version: 6.00 Build 0)  -->
<!DOCTYPE svg PUBLIC "-//W3C//DTD SVG 1.1//EN" "http://www.w3.org/Graphics/SVG/1.1/DTD/svg11.dtd">
<svg version="1.1" id="Layer_1" xmlns="http://www.w3.org/2000/svg" xmlns:xlink="http://www.w3.org/1999/xlink" x="0px" y="0px"
	 width="574.9px" height="191px" viewBox="-266.5 220.5 574.9 191" style="enable-background:new -266.5 220.5 574.9 191;"
	 xml:space="preserve">
<style type="text/css">
	.st0{fill:#17AA1C;}
</style>
<g>
	<path class="st0" d="M-77.8,220.5c-5.7,0.6-9.8,2.3-12.6,5.4c-1.5,1.6-2.6,3.7-3.4,6c-0.8,2.4-1.2,5.3-1.2,8.6v32.3
		c-3-2.1-6.2-3.8-9.6-5.2c-5-1.9-10.4-2.9-15.9-2.9c-15.4,0-27.3,4.5-35.4,13.4c-8.2,9-12.3,22.4-12.3,39.9
		c0,17.2,4.2,30.5,12.3,39.6c8.3,9.2,20.5,13.8,36.3,13.8c7.2,0,13.8-1,19.6-3.1c5.7-2,10.7-5,14.7-8.9s7.1-8.6,9.2-14
		c2.1-5.5,3.2-11.7,3.2-18.3V224.5C-73,222.3-75.1,220.2-77.8,220.5z M-95,325.2c0,4-0.5,7.6-1.6,10.7s-2.7,5.7-4.8,7.8
		s-4.7,3.8-7.7,4.8c-3.1,1.1-6.7,1.7-10.6,1.7c-4.7,0-8.5-0.6-11.9-1.8c-3.4-1.2-6.1-3.1-8.2-5.7c-4.4-5.2-6.5-13.3-6.5-24.9
		c0-5.7,0.5-10.6,1.7-14.8c1.1-4.1,2.7-7.5,5-10.2c1.1-1.3,2.3-2.5,3.7-3.5s2.9-1.8,4.5-2.5c3.3-1.3,7.3-2,11.8-2
		c3.2,0,6.4,0.5,9.4,1.7c3,1.1,5.6,2.6,7.9,4.6c4.8,4.1,7.4,9.7,7.4,15.6L-95,325.2L-95,325.2z"/>
	<path class="st0" d="M-177.5,272.7c0-2.3-2-4.1-4.3-4.1c-0.2,0-0.3,0-0.5,0c-5.7,0.6-9.8,2.3-12.6,5.4c-1.5,1.6-2.6,3.7-3.4,6
		c-0.7,2.4-1.2,5.3-1.2,8.6v40.7c0,3.8-0.4,7-1.3,9.7c-0.9,2.7-2.2,4.8-4,6.5c-1.8,1.7-4.1,2.9-6.9,3.7c-2.8,0.8-6.2,1.2-10.3,1.2
		s-7.5-0.4-10.3-1.2c-2.9-0.8-5.1-2-6.9-3.7c-1.8-1.7-3.1-3.8-4-6.5c-0.9-2.7-1.3-5.8-1.3-9.7v-56.5c0-2.2-2-4.1-4.3-4.1
		c-0.2,0-0.3,0-0.5,0c-5.7,0.6-9.8,2.3-12.6,5.4c-1.5,1.6-2.6,3.7-3.4,6c-0.7,2.4-1.2,5.3-1.2,8.6V330c0,12.4,2.8,21.8,8.6,28.5
		c7.4,8.6,19.1,12.8,35.9,12.8c16.9,0,28.6-4.2,36-12.8c5.7-6.7,8.5-16,8.5-28.5v-43.8v-0.5V272.7L-177.5,272.7z"/>
	<path class="st0" d="M308,269.4c-0.6-1.4-1.8-2.5-3.3-3.1c-2.8-1-5.8-1.6-8.6-1.6c-3.4,0-6.6,0.8-9.3,2.1c-3,1.6-4.8,3.2-6,5.6
		L254,331l-25.4-58.7v-0.1c-1.4-2.7-3.2-4-5.9-5.4c-2.7-1.4-5.9-2.1-9.3-2.1c-2.9,0-5.8,0.5-8.7,1.6c-1.5,0.5-2.7,1.7-3.2,3.1
		c-0.6,1.4-0.5,2.9,0.1,4.3l39,87.3c-1,2.3-1.9,4.3-2.7,6.3c-3.2,7.1-6,12.5-9.7,16c-1.7,1.7-3.7,2.9-5.9,3.7
		c-2.3,0.9-5,1.3-8.2,1.3H205c-2.2,0-4.1,0.8-5.5,2.3c-1.3,1.4-2,3.3-1.8,5.2c0.2,2.3,0.9,4.5,2.1,6.5c1.1,1.9,2.6,3.5,4.5,5
		c3.7,2.7,8.4,4.2,13.3,4.2c4.8,0,9.3-0.8,13.4-2.2s7.9-3.6,11.4-6.5c3.4-2.8,6.6-6.3,9.5-10.5c2.8-4,5.5-8.9,7.9-14.3L308,273.7
		C308.5,272.3,308.6,270.8,308,269.4z"/>
	<path class="st0" d="M198.7,366.2v-60.3c0-11.4-3-20.7-8.9-27.6c-7.8-9.1-20.3-13.7-37.2-13.7c-3.5,0-6.8,0.2-9.9,0.8
		c-3,0.5-6,1.3-8.6,2.4c-2.6,1-5.1,2.4-7.4,4c-1.8,1.2-3.5,2.7-5.1,4.3c-3.6-3.5-8.2-6.2-13.6-8.2c-6-2.2-12.9-3.2-20.5-3.2
		c-4.9,0-9.7,0.8-14,2.3c-3.8,1.3-7.2,3.1-10.2,5.4c-0.6-0.8-1.3-1.6-2-2.3c-1.1-1-2.5-2-4-2.7c-2.8-1.4-6.1-2.2-10.2-2.6
		c-1.7-0.2-3.3,0.3-4.6,1.4c-1.2,1-1.8,2.3-1.8,3.8v83.3c0,3.1,0.5,5.8,1.6,8.2c1,2.1,2.5,4,4.3,5.5c2.9,2.3,6.9,3.8,12.1,4.6
		c3.5,0.5,6-1.6,6-5v-60.5c0-3.2,0.5-6,1.3-8.4c0.9-2.2,2.2-4.2,3.9-5.7c1.7-1.5,3.9-2.6,6.5-3.4c2.7-0.7,5.9-1.2,9.5-1.2
		c4.2,0,7.5,0.4,10.3,1.1c2.8,0.7,4.9,1.9,6.5,3.5c1.7,1.6,2.9,3.7,3.7,6.4c0.8,2.8,1.2,6.2,1.2,10.5v44.5c0,3.1,0.5,5.8,1.6,8.2
		c1,2.1,2.5,4,4.3,5.5c2.9,2.3,6.9,3.8,12.1,4.6c3.5,0.5,6-1.6,6-5v-60.3c0-6.7,1.6-11.4,5-14.4c3.3-3,8.5-4.4,15.9-4.4
		c8.2,0,13.6,1.5,17,4.8c1.8,1.7,3,3.8,3.8,6.5c0.9,2.8,1.3,6.1,1.3,10.2v44.5c0,3.1,0.5,5.8,1.6,8.2c1,2.1,2.5,4,4.3,5.5
		c2.9,2.3,6.9,3.8,12.1,4.6c0.3,0,0.7,0.1,1,0.1c1.4,0,2.7-0.5,3.5-1.3C198.2,369.1,198.7,367.8,198.7,366.2z"/>
	<path class="st0" d="M-15,264.7c-7.7,0-14.6,1.2-20.7,3.5c-6,2.3-11.2,5.8-15.4,10.4c-4.2,4.5-7.4,10.2-9.5,16.8
		c-2.2,6.6-3.2,14.2-3.2,22.5c0,9.2,1.3,17.4,3.8,24.4c2.4,6.6,6,12.2,10.7,16.6c4.4,4.2,9.9,7.4,16.2,9.5c6,2,12.8,3,20.3,3
		c18.2,0,39.1-11.1,39.1-25.3c0-2-0.7-4.1-1.9-5.7c-1.3-1.7-3-2.7-4.9-2.7c-1.1,0-2.2,0.3-3.3,1c-1.5,0.9-3,2-4.6,3
		c-5.8,4-12.2,8.5-24.4,8.5c-4.2,0-8.1-0.5-11.5-1.6c-3.4-1-6.3-2.7-8.8-4.8c-2.5-2.1-4.4-4.8-5.8-7.8c-1.4-3-2.2-6.5-2.6-10.4h59.3
		c3,0,5.4-0.6,7.3-1.8c1.7-1,3-2.6,3.8-4.5c1.6-3.5,1.6-7.8,1.6-10.6c0-4.8-0.8-17-8.5-27.5C14.2,270.2,1.7,264.7-15,264.7z
		 M7.8,305.6c-0.5,0.5-1.2,0.8-1.9,0.8h-47.2c0.5-3.5,1.5-6.5,2.8-9.2c1.4-2.7,3.2-5,5.4-6.8c2.2-1.8,4.8-3.1,7.8-4
		s6.4-1.3,10.2-1.3c7.2,0,12.5,1.5,16.3,4.4c3.9,3,6.2,7.7,7.1,14.2C8.5,304.5,8.3,305.1,7.8,305.6z"/>
</g>
</svg>
